#!OML:ASF H:\Punching\Project 1\Capture day 1\Session 1\female.ASF
:FULLY-SPECIFIED
:DEGREES
3918
root -2.73185 15.7753 -4.36325 -163.422 173.501 -179.293
lowerback -5.58033 -0.431292 2.87895
upperback -6.17071 -0.644925 0.259975
thorax -3.27579 -0.425677 -1.36054
lowerneck -13.7541 6.12667 11.3043
upperneck 35.4198 8.21279 -6.22551
head 15.5434 4.2265 -3.17391
rclavicle -1.9307e-014 -1.35174e-014
rhumerus -36.0892 -10.8006 -65.3848
rradius 18.3051
rwrist 27.1674
rhand -12.9005 -6.81187
rfingers 7.12502
rthumb 13.1891 -36.3747
lclavicle -1.9307e-014 -1.35174e-014
lhumerus -35.0466 -7.30407 87.248
lradius 59.5912
lwrist -12.1227
lhand -6.57041 10.4763
lfingers 7.12502
lthumb 19.2839 39.5402
rfemur -21.5163 6.92111 22.982
rtibia 28.1075
rfoot -20.056 -18.8931
rtoes 1.46409
lfemur -25.4152 -11.5425 -20.6382
ltibia 28.0919
lfoot -18.6592 14.7053
ltoes -1.21834
3919
root -2.72227 15.7716 -4.34967 -163.539 174.099 -179.442
lowerback -5.76682 -0.423945 2.89933
upperback -6.24624 -0.640265 0.323375
thorax -3.25023 -0.423496 -1.30768
lowerneck -13.5552 6.13894 11.4164
upperneck 35.6823 8.22297 -6.19758
head 15.6337 4.25594 -3.19061
rclavicle 2.01891e-014 -8.74653e-015
rhumerus -36.0447 -10.978 -65.4033
rradius 18.2624
rwrist 27.2212
rhand -12.8484 -6.77844
rfingers 7.12502
rthumb 13.2393 -36.338
lclavicle 2.01891e-014 -8.74653e-015
lhumerus -35.6542 -7.16032 87.4699
lradius 59.2469
lwrist -12.2027
lhand -6.35238 10.4398
lfingers 7.12502
lthumb 19.4936 39.4826
rfemur -21.3235 7.00893 23.0382
rtibia 27.9434
rfoot -20.0495 -18.4093
rtoes 1.32381
lfemur -24.9132 -11.3187 -20.6669
ltibia 27.5114
lfoot -18.1611 15.2931
ltoes 0.125168
3920
root -2.71301 15.7694 -4.33634 -163.643 174.658 -179.573
lowerback -5.95083 -0.433273 2.90753
upperback -6.32853 -0.657454 0.383958
thorax -3.23405 -0.432056 -1.25143
lowerneck -13.3566 6.15348 11.5263
upperneck 35.9492 8.23743 -6.16935
head 15.7275 4.28711 -3.20618
rclavicle 9.08197e-015 -1.59028e-015
rhumerus -35.994 -11.1293 -65.4822
rradius 18.2505
rwrist 27.1816
rhand -12.8379 -6.74177
rfingers 7.12502
rthumb 13.2494 -36.3007
lclavicle 9.08197e-015 -1.59028e-015
lhumerus -36.261 -6.98727 87.6679
lradius 58.8231
lwrist -12.279
lhand -6.11351 10.4451
lfingers 7.12502
lthumb 19.7232 39.4644
rfemur -21.1229 7.06012 23.0831
rtibia 27.7533
rfoot -20.0488 -17.927
rtoes 1.18944
lfemur -24.4705 -11.0526 -20.7216
ltibia 27.0418
lfoot -17.7353 15.7692
ltoes 1.29052
3921
root -2.70397 15.7685 -4.32318 -163.748 175.177 -179.685
lowerback -6.12552 -0.459023 2.90394
upperback -6.40885 -0.696053 0.440193
thorax -3.22182 -0.451026 -1.1937
lowerneck -13.168 6.17139 11.6307
upperneck 36.2206 8.25678 -6.13849
head 15.8271 4.31986 -3.21867
rclavicle 1.28589e-014 5.1684e-015
rhumerus -35.9318 -11.2677 -65.6178
rradius 18.2671
rwrist 27.0665
rhand -12.833 -6.74691
rfingers 7.12502
rthumb 13.2541 -36.3055
lclavicle 1.28589e-014 5.1684e-015
lhumerus -36.8561 -6.78272 87.8397
lradius 58.311
lwrist -12.3621
lhand -5.8863 10.4471
lfingers 7.12502
lthumb 19.9416 39.4439
rfemur -20.9029 7.09263 23.1137
rtibia 27.5426
rfoot -20.0601 -17.4689
rtoes 1.07098
lfemur -24.0665 -10.7938 -20.7914
ltibia 26.6869
lfoot -17.4758 16.1449
ltoes 2.26909
3922
root -2.69507 15.7689 -4.31044 -163.856 175.65 -179.774
lowerback -6.27944 -0.501154 2.88835
upperback -6.48686 -0.755542 0.490659
thorax -3.21948 -0.480232 -1.13578
lowerneck -12.9867 6.19418 11.7345
upperneck 36.4864 8.28503 -6.11407
head 15.9282 4.35533 -3.232
rclavicle 7.68738e-016 5.1684e-015
rhumerus -35.8679 -11.3774 -65.8173
rradius 18.3261
rwrist 26.8595
rhand -12.8093 -6.82949
rfingers 7.12502
rthumb 13.277 -36.3866
lclavicle 7.68738e-016 5.1684e-015
lhumerus -37.4357 -6.5391 87.9813
lradius 57.7007
lwrist -12.4844
lhand -5.69163 10.407
lfingers 7.12502
lthumb 20.1288 39.3842
rfemur -20.664 7.11375 23.1263
rtibia 27.3206
rfoot -20.0928 -17.0578
rtoes 0.929305
lfemur -23.6952 -10.5649 -20.8711
ltibia 26.4339
lfoot -17.3866 16.4383
ltoes 3.04207
3923
root -2.68655 15.7701 -4.29821 -163.972 176.086 -179.841
lowerback -6.41515 -0.556864 2.85506
upperback -6.55649 -0.83213 0.535052
thorax -3.21884 -0.517379 -1.07482
lowerneck -12.8191 6.22273 11.8373
upperneck 36.7449 8.3226 -6.09541
head 16.0312 4.39348 -3.24547
rclavicle -2.08025e-014 1.74931e-014
rhumerus -35.8016 -11.4495 -66.0846
rradius 18.4319
rwrist 26.5479
rhand -12.7657 -6.9898
rfingers 7.12502
rthumb 13.3191 -36.5442
lclavicle -2.08025e-014 1.74931e-014
lhumerus -37.9825 -6.25349 88.0874
lradius 56.9811
lwrist -12.6471
lhand -5.53896 10.3066
lfingers 7.12502
lthumb 20.2755 39.2683
rfemur -20.4113 7.14762 23.1182
rtibia 27.1003
rfoot -20.155 -16.7191
rtoes 0.727942
lfemur -23.3516 -10.3633 -20.9579
ltibia 26.26
lfoot -17.4181 16.6707
ltoes 3.61829
3924
root -2.67819 15.7714 -4.2864 -164.093 176.477 -179.884
lowerback -6.53267 -0.622962 2.81132
upperback -6.62077 -0.921745 0.570234
thorax -3.223 -0.560838 -1.01796
lowerneck -12.6607 6.25269 11.9345
upperneck 36.9935 8.36336 -6.07897
head 16.1327 4.43169 -3.25795
rclavicle -6.563e-015 1.59028e-015
rhumerus -35.7534 -11.474 -66.4197
rradius 18.5996
rwrist 26.1103
rhand -12.7186 -7.19983
rfingers 7.12502
rthumb 13.3644 -36.7512
lclavicle -6.563e-015 1.59028e-015
lhumerus -38.4995 -5.93319 88.1576
lradius 56.1469
lwrist -12.8624
lhand -5.4098 10.1514
lfingers 7.12502
lthumb 20.3996 39.0999
rfemur -20.1512 7.18971 23.0907
rtibia 26.8954
rfoot -20.2634 -16.46
rtoes 0.423447
lfemur -23.036 -10.1606 -21.0553
ltibia 26.1403
lfoot -17.5045 16.8329
ltoes 3.99927
3925
root -2.6701 15.7724 -4.27506 -164.212 176.839 -179.904
lowerback -6.6405 -0.692459 2.75205
upperback -6.68171 -1.0151 0.595704
thorax -3.22882 -0.605728 -0.962653
lowerneck -12.5134 6.28161 12.023
upperneck 37.2285 8.40336 -6.06295
head 16.23 4.46799 -3.26866
rclavicle 1.01442e-014 1.19271e-015
rhumerus -35.7342 -11.4287 -66.8274
rradius 18.8423
rwrist 25.5125
rhand -12.6892 -7.42758
rfingers 7.12502
rthumb 13.3928 -36.9771
lclavicle 1.01442e-014 1.19271e-015
lhumerus -38.9813 -5.5841 88.193
lradius 55.2114
lwrist -13.1116
lhand -5.25945 10.0199
lfingers 7.12502
lthumb 20.5441 38.9529
rfemur -19.9038 7.24393 23.0412
rtibia 26.7212
rfoot -20.4251 -16.274
rtoes -0.0141003
lfemur -22.7499 -9.92465 -21.1689
ltibia 26.0515
lfoot -17.5932 16.9266
ltoes 4.19343
3926
root -2.66214 15.773 -4.26407 -164.321 177.159 -179.903
lowerback -6.75117 -0.767434 2.68161
upperback -6.74122 -1.11544 0.612935
thorax -3.2315 -0.65377 -0.910117
lowerneck -12.3766 6.30812 12.0999
upperneck 37.4482 8.442 -6.04904
head 16.3218 4.50148 -3.27798
rclavicle -1.36043e-015 8.74653e-015
rhumerus -35.7516 -11.3048 -67.3042
rradius 19.1648
rwrist 24.7396
rhand -12.709 -7.6183
rfingers 7.12502
rthumb 13.3737 -37.1691
lclavicle -1.36043e-015 8.74653e-015
lhumerus -39.4243 -5.20275 88.1906
lradius 54.1704
lwrist -13.4046
lhand -5.09072 9.89477
lfingers 7.12502
lthumb 20.7062 38.8101
rfemur -19.6826 7.29913 22.9726
rtibia 26.5893
rfoot -20.6434 -16.1602
rtoes -0.58956
lfemur -22.4962 -9.64362 -21.2982
ltibia 25.9753
lfoot -17.6569 16.9322
ltoes 4.25157
3927
root -2.65411 15.7729 -4.25324 -164.413 177.451 -179.881
lowerback -6.86961 -0.841093 2.60123
upperback -6.80263 -1.21384 0.620005
thorax -3.23151 -0.700619 -0.862766
lowerneck -12.2488 6.33001 12.1642
upperneck 37.6519 8.47542 -6.03476
head 16.4065 4.53077 -3.28533
rclavicle 1.16413e-014 -2.78299e-015
rhumerus -35.8149 -11.1145 -67.8371
rradius 19.56
rwrist 23.796
rhand -12.7942 -7.71856
rfingers 7.12502
rthumb 13.2915 -37.2747
lclavicle 1.16413e-014 -2.78299e-015
lhumerus -39.8344 -4.79251 88.1479
lradius 53.0401
lwrist -13.7294
lhand -4.88473 9.78824
lfingers 7.12502
lthumb 20.9042 38.6819
rfemur -19.4981 7.35217 22.8828
rtibia 26.5066
rfoot -20.9195 -16.0931
rtoes -1.27327
lfemur -22.265 -9.33782 -21.4401
ltibia 25.8995
lfoot -17.7208 16.8582
ltoes 4.27651
3928
root -2.64584 15.7723 -4.24272 -164.483 177.711 -179.832
lowerback -7.00235 -0.915024 2.50481
upperback -6.86657 -1.31228 0.617384
thorax -3.22584 -0.746982 -0.816935
lowerneck -12.1289 6.3482 12.2174
upperneck 37.8333 8.50583 -6.02411
head 16.4809 4.55636 -3.2922
rclavicle 1.19954e-014 -3.97569e-016
rhumerus -35.9268 -10.8551 -68.4192
rradius 20.0314
rwrist 22.6798
rhand -12.933 -7.70378
rfingers 7.12502
rthumb 13.1577 -37.2686
lclavicle 1.19954e-014 -3.97569e-016
lhumerus -40.2104 -4.34875 88.0647
lradius 51.844
lwrist -14.0762
lhand -4.60524 9.75095
lfingers 7.12502
lthumb 21.1727 38.6148
rfemur -19.3583 7.39416 22.7645
rtibia 26.4708
rfoot -21.2397 -16.064
rtoes -2.02933
lfemur -22.0611 -9.02716 -21.6013
ltibia 25.8198
lfoot -17.7777 16.7248
ltoes 4.27545
